<svg id="Layer_5" enable-background="new 0 0 64 64" height="512" viewBox="0 0 64 64" width="512" xmlns="http://www.w3.org/2000/svg"><g><path d="m54 22h-2v-2c0-1.105-.895-2-2-2h-2v-8h1c.552 0 1-.448 1-1v-2c0-.552-.448-1-1-1h-12.295c.19.634.295 1.305.295 2s-.105 1.366-.295 2h7.295v8h-2c-1.105 0-2 .895-2 2v2h-2c-4.418 0-8 3.582-8 8v2c0 4.079 3.055 7.438 7 7.931v-3.931c0-.047.012-.091.014-.137-1.73-.441-3.014-1.996-3.014-3.863v-2c0-2.209 1.791-4 4-4h6v2c0 1.105.895 2 2 2s2-.895 2-2v-2h6c2.209 0 4 1.791 4 4v2c0 1.867-1.284 3.422-3.014 3.863.002.046.014.09.014.137v3.931c3.945-.493 7-3.852 7-7.931v-2c0-4.418-3.582-8-8-8z"/><path d="m49 39v-4h-6v4h2v-2h2v2z"/><path d="m57 53v-4h-5-1v4h2v-2h2v2z"/><path d="m35 53h2v-2h2v2h2v-4h-1-5z"/><path d="m60 49h-1v6h-10v-6h-1c-.552 0-1 .449-1 1v10c0 .551.448 1 1 1h12c.552 0 1-.449 1-1v-10c0-.551-.448-1-1-1z"/><path d="m44 49h-1v6h-10v-6h-1c-.552 0-1 .449-1 1v10c0 .551.448 1 1 1h12c.552 0 1-.449 1-1v-10c0-.551-.448-1-1-1z"/><path d="m40 35c-.552 0-1 .449-1 1v10c0 .551.448 1 1 1h4 4 4c.552 0 1-.449 1-1v-10c0-.551-.448-1-1-1h-1v6h-10v-6z"/><path d="m17 26c0-3.844-3.115-6.971-6.952-6.998l-.035-.001v-.001c-.005.001-.009 0-.013 0-3.859 0-7 3.14-7 7s3.141 7 7 7 7-3.14 7-7zm-11 0c0-2.209 1.791-4 4-4s4 1.791 4 4-1.791 4-4 4-4-1.791-4-4z"/><path d="m23.333 10.128-10.583 7.305c2.514.809 4.549 2.693 5.558 5.11l7.861-8.692c-1.328-.872-2.343-2.181-2.836-3.723z"/><path d="m7.124 34.521 3.689 15.19 9.345 1.402-4.924-17.805c-1.477 1.06-3.281 1.692-5.234 1.692-1.006 0-1.971-.173-2.876-.479z"/><path d="m35 8c0-2.757-2.243-5-5-5s-5 2.243-5 5 2.243 5 5 5 5-2.243 5-5zm-7 0c0-1.105.895-2 2-2s2 .895 2 2-.895 2-2 2-2-.895-2-2z"/><path d="m22.445 53.478-1.591-.239-.1.028-.012-.045-13.742-2.061v9.839h18v-4.555c0-1.497-1.074-2.745-2.555-2.967z"/></g></svg>