<svg id="Capa_1" enable-background="new 0 0 510 510" height="512" viewBox="0 0 510 510" width="512" xmlns="http://www.w3.org/2000/svg"><path d="m427.258 340.83c7.189 0 13.367-5.101 14.729-12.159l30.8-159.69c1.783-9.245-5.309-17.841-14.729-17.841h-92.321l23.015-31.541c7.222-9.898.129-23.842-12.117-23.842h-32.676v-80.757c0-8.284-6.716-15-15-15h-83.773c-8.284 0-15 6.716-15 15v80.757h-32.676c-12.253 0-19.336 13.949-12.117 23.842l23.015 31.541h-78.512l-9.637-54.425c-1.269-7.164-7.495-12.385-14.771-12.385h-53.55c-8.284 0-15 6.716-15 15s6.716 15 15 15h40.973c13.309 75.166 2.12 15.479 40.217 212.935v48.659c-30.218 6.862-52.851 33.923-52.851 66.187 0 37.432 30.454 67.886 67.886 67.886 32.277 0 59.346-22.65 66.195-52.886h95.919c6.847 30.238 33.917 52.89 66.195 52.89 37.432 0 67.886-30.454 67.886-67.886s-30.454-67.886-67.886-67.886c-32.275 0-59.343 22.648-66.193 52.881h-95.922c-5.758-25.418-25.807-45.458-51.23-51.203v-35.077zm-182.073-215.073c8.284 0 15-6.716 15-15v-80.757h53.773v80.757c0 8.284 6.716 15 15 15h18.162l-60.049 82.295-60.049-82.295zm-14.887 55.383 44.657 61.202c5.991 8.21 18.253 8.197 24.234 0l44.658-61.202h96.042l-25.014 129.69h-254.364l-25.022-129.69zm146.175 223.089c20.89 0 37.886 16.996 37.886 37.886s-16.996 37.885-37.886 37.885-37.885-16.996-37.885-37.886 16.995-37.885 37.885-37.885zm-190.425 37.868c0 .004-.001.008-.001.013s.001.009.001.013c-.007 20.884-17 37.873-37.885 37.873-20.89 0-37.886-16.996-37.886-37.886s16.996-37.886 37.886-37.886c20.886.001 37.878 16.989 37.885 37.873z"/></svg>