<svg id="Capa_1" enable-background="new 0 0 512 512" height="512" viewBox="0 0 512 512" width="512" xmlns="http://www.w3.org/2000/svg"><g id="XMLID_774_"><g id="XMLID_2072_"><path id="XMLID_2107_" d="m154.447 289c-5.523 0-10 4.477-10 10v77.567c0 5.523 4.477 10 10 10s10-4.477 10-10v-77.567c0-5.523-4.477-10-10-10z"/><path id="XMLID_2190_" d="m246 289c-5.523 0-10 4.477-10 10v77.567c0 5.523 4.477 10 10 10s10-4.477 10-10v-77.567c0-5.523-4.477-10-10-10z"/><path id="XMLID_2193_" d="m451.604 296.507 10.62-65.453h19.776c5.523 0 10-4.477 10-10v-81.204c0-5.523-4.477-10-10-10h-57c-5.523 0-10 4.477-10 10s4.477 10 10 10h47v61.204h-193.834c2.875-5.338 4.51-11.438 4.511-17.915v-43.29h52.323c5.523 0 10-4.477 10-10s-4.477-10-10-10h-52.324v-64.934c0-20.906-17.008-37.915-37.915-37.915-20.905.001-37.913 17.009-37.914 37.915v64.935h-196.847c-5.523 0-10 4.477-10 10v81.204c0 5.523 4.477 10 10 10h19.775l36.518 225.064c.786 4.841 4.966 8.398 9.871 8.398h277.948c16.573 12.834 37.353 20.484 59.888 20.484 54.038 0 98-43.962 98-98 0-40.721-24.967-75.716-60.396-90.493zm-224.757-231.592c0-9.877 8.037-17.915 17.915-17.915s17.915 8.037 17.915 17.915v128.224c0 9.877-8.037 17.915-17.915 17.915-4.784 0-9.283-1.863-12.667-5.247s-5.248-7.883-5.248-12.667zm-206.847 84.935h186.847v43.29c0 6.355 1.555 12.47 4.481 17.915h-191.328zm30.037 81.204h391.926l-9.681 59.664c-5.925-1.124-12.035-1.718-18.282-1.718-25.619 0-48.969 9.886-66.448 26.037v-16.037c0-5.523-4.477-10-10-10s-10 4.477-10 10v41.881c-7.367 13.753-11.552 29.456-11.552 46.119 0 21.473 6.947 41.351 18.705 57.516h-250.032zm363.963 233.946c-43.009 0-78-34.991-78-78s34.991-78 78-78 78 34.991 78 78-34.991 78-78 78z"/><path id="XMLID_2203_" d="m448 377h-24v-24c0-5.523-4.477-10-10-10s-10 4.477-10 10v24h-24c-5.523 0-10 4.477-10 10s4.477 10 10 10h24v24c0 5.523 4.477 10 10 10s10-4.477 10-10v-24h24c5.523 0 10-4.477 10-10s-4.477-10-10-10z"/><path id="XMLID_2204_" d="m380 149.85c2.63 0 5.21-1.07 7.07-2.93s2.93-4.44 2.93-7.07-1.07-5.21-2.93-7.07-4.44-2.93-7.07-2.93-5.21 1.07-7.07 2.93-2.93 4.44-2.93 7.07 1.07 5.21 2.93 7.07 4.44 2.93 7.07 2.93z"/></g></g></svg>